{
    "asset": {
        "version": "2.0",
        "generator": "Open Asset Import Library (assimp v3.1.256107357)"
    },
    "accessors": [
        {
            "bufferView": 0,
            "byteOffset": 0,
            "componentType": 5126,
            "count": 94,
            "type": "VEC3",
            "max": [
                -0.026600003242492677,
                -0.01850000023841858,
                0.11999998986721039
            ],
            "min": [
                -0.03660000488162041,
                -0.02850000001490116,
                0.0
            ]
        },
        {
            "bufferView": 1,
            "byteOffset": 0,
            "componentType": 5126,
            "count": 94,
            "type": "VEC3",
            "max": [
                1.0,
                1.0,
                1.0
            ],
            "min": [
                -1.0,
                -1.0,
                -1.0
            ]
        },
        {
            "bufferView": 2,
            "byteOffset": 0,
            "componentType": 5126,
            "count": 94,
            "type": "VEC4",
            "max": [
                1.0,
                1.0,
                1.0,
                1.0
            ],
            "min": [
                -0.8777635097503662,
                -0.9691969752311707,
                -0.9519615769386292,
                -0.8777635097503662
            ]
        },
        {
            "bufferView": 3,
            "byteOffset": 0,
            "componentType": 5126,
            "count": 94,
            "type": "VEC2",
            "max": [
                0.999998927116394,
                0.9999990463256836
            ],
            "min": [
                9.98377799987793e-7,
                0.14513087272644044
            ]
        },
        {
            "bufferView": 4,
            "byteOffset": 0,
            "componentType": 5123,
            "count": 180,
            "type": "SCALAR",
            "max": [
                93.0
            ],
            "min": [
                0.0
            ]
        }
    ],
    "buffers": [
        {
            "byteLength": 4872,
            "uri": "3D1.bin"
        }
    ],
    "bufferViews": [
        {
            "buffer": 0,
            "byteOffset": 0,
            "byteLength": 1128,
            "target": 34962
        },
        {
            "buffer": 0,
            "byteOffset": 1128,
            "byteLength": 1128,
            "target": 34962
        },
        {
            "buffer": 0,
            "byteOffset": 2256,
            "byteLength": 1504,
            "target": 34962
        },
        {
            "buffer": 0,
            "byteOffset": 3760,
            "byteLength": 752,
            "target": 34962
        },
        {
            "buffer": 0,
            "byteOffset": 4512,
            "byteLength": 360,
            "target": 34963
        }
    ],
    "materials": [
        {
            "name": "DefaultMaterial",
            "pbrMetallicRoughness": {
                "baseColorFactor": [
                    0.6000000238418579,
                    0.6000000238418579,
                    0.6000000238418579,
                    1.0
                ],
                "metallicFactor": 0.0
            }
        }
    ],
    "meshes": [
        {
            "name": "Body_01",
            "primitives": [
                {
                    "mode": 4,
                    "material": 0,
                    "indices": 4,
                    "attributes": {
                        "POSITION": 0,
                        "NORMAL": 1,
                        "TANGENT": 2,
                        "TEXCOORD_0": 3
                    }
                }
            ]
        }
    ],
    "nodes": [
        {
            "name": "3D1MetalPart.obj",
            "matrix": [
                0.009999999776482582,
                0.0,
                0.0,
                0.0,
                0.0,
                0.009999999776482582,
                0.0,
                0.0,
                0.0,
                0.0,
                0.009999999776482582,
                0.0,
                0.0,
                0.0,
                0.0,
                1.0
            ],
            "children": [
                1
            ]
        },
        {
            "name": "Body_01",
            "mesh": 0
        }
    ],
    "scenes": [
        {
            "nodes": [
                0
            ]
        }
    ],
    "scene": 0
}