{
  "accessors": [
    {
      "bufferView": 3,
      "componentType": 5126,
      "count": 17772,
      "max": [
        0.7500000596046448,
        0.1015000119805336,
        1.0001857280731201
      ],
      "min": [
        -0.7500000596046448,
        -0.101500004529953,
        -1.0001857280731201
      ],
      "name": "positions",
      "type": "VEC3"
    },
    {
      "bufferView": 4,
      "componentType": 5126,
      "count": 17772,
      "max": [
        0.9993907809257507,
        1.0,
        1.0
      ],
      "min": [
        -1.0,
        -1.0,
        -1.0
      ],
      "name": "normals",
      "type": "VEC3"
    },
    {
      "bufferView": 5,
      "componentType": 5126,
      "count": 17772,
      "max": [
        0.9989999532699585,
        0.9887281060218811
      ],
      "min": [
        0.0010000169277191162,
        0.0009999871253967285
      ],
      "name": "texCoords",
      "type": "VEC2"
    },
    {
      "bufferView": 6,
      "componentType": 5125,
      "count": 17772,
      "max": [
        17771
      ],
      "min": [
        0
      ],
      "name": "indices",
      "type": "SCALAR"
    }
  ],
  "asset": {
    "extras": null,
    "version": "2.0"
  },
  "bufferViews": [
    {
      "buffer": 0,
      "byteLength": 16777224,
      "name": "11,11],\"$randomseed\":0,\"ambientocclusion_intensity\":0.5,\"channel_ambientocclusion\":1,\"channel_basecolor\":1,\"channel_diffuse\":0,\"channel_glossiness\":0,\"channel_height\":1,\"channel_metallic\":1,\"channel_normal\":1,\"channel_roughness\":1,\"channel_specular\":0,\"color\":[0.7137259840965271,0.5019609928131104,0.3960779905319214],\"contrast\":0.0,\"grain_intensity\":0.1899999976158142,\"height_position\":0.5,\"height_range\":1.0,\"hue_shift\":0.0,\"luminosity\":0.5,\"normal_format\":0,\"normal_intensity\":0.5,\"roughness\":0.5,\"saturation\":0"
    },
    {
      "buffer": 0,
      "byteLength": 33554440,
      "byteOffset": 16777224,
      "name": "11,11],\"$randomseed\":0,\"ambientocclusion_intensity\":0.5,\"channel_ambientocclusion\":1,\"channel_basecolor\":1,\"channel_diffuse\":0,\"channel_glossiness\":0,\"channel_height\":1,\"channel_metallic\":1,\"channel_normal\":1,\"channel_roughness\":1,\"channel_specular\":0,\"color\":[0.7137259840965271,0.5019609928131104,0.3960779905319214],\"contrast\":0.0,\"grain_intensity\":0.1899999976158142,\"height_position\":0.5,\"height_range\":1.0,\"hue_shift\":0.0,\"luminosity\":0.5,\"normal_format\":0,\"normal_intensity\":0.5,\"roughness\":0.5,\"saturation\":0_4"
    },
    {
      "buffer": 0,
      "byteLength": 0,
      "byteOffset": 50331664
    },
    {
      "buffer": 0,
      "byteLength": 213264,
      "byteOffset": 50331664,
      "name": "positions",
      "target": 34962
    },
    {
      "buffer": 0,
      "byteLength": 213264,
      "byteOffset": 50544928,
      "name": "normals",
      "target": 34962
    },
    {
      "buffer": 0,
      "byteLength": 142176,
      "byteOffset": 50758192,
      "name": "texCoords",
      "target": 34962
    },
    {
      "buffer": 0,
      "byteLength": 71088,
      "byteOffset": 50900368,
      "name": "indices",
      "target": 34963
    }
  ],
  "buffers": [
    {
      "byteLength": 50971456,
      "uri": "Project1.bin"
    }
  ],
  "cameras": [
    {
      "name": "CompCamera",
      "perspective": {
        "aspectRatio": 1.7777777910232544,
        "yfov": 0.47123891115188604,
        "zfar": 27.749000549316406,
        "znear": 0.002774900058284402
      },
      "type": "perspective"
    },
    {
      "name": "ViewportCamera",
      "perspective": {
        "aspectRatio": 1.7777777910232544,
        "yfov": 0.47123891115188604,
        "zfar": 27.749000549316406,
        "znear": 0.002774900058284402
      },
      "type": "perspective"
    }
  ],
  "extensionsRequired": [
    "KHR_texture_transform"
  ],
  "extensionsUsed": [
    "KHR_texture_transform"
  ],
  "images": [
    {
      "bufferView": 0,
      "mimeType": "image/png",
      "name": "11,11],\"$randomseed\":0,\"ambientocclusion_intensity\":0.5,\"channel_ambientocclusion\":1,\"channel_basecolor\":1,\"channel_diffuse\":0,\"channel_glossiness\":0,\"channel_height\":1,\"channel_metallic\":1,\"channel_normal\":1,\"channel_roughness\":1,\"channel_specular\":0,\"color\":[0.7137259840965271,0.5019609928131104,0.3960779905319214],\"contrast\":0.0,\"grain_intensity\":0.1899999976158142,\"height_position\":0.5,\"height_range\":1.0,\"hue_shift\":0.0,\"luminosity\":0.5,\"normal_format\":0,\"normal_intensity\":0.5,\"roughness\":0.5,\"saturation\":0"
    },
    {
      "bufferView": 1,
      "mimeType": "image/png",
      "name": "11,11],\"$randomseed\":0,\"ambientocclusion_intensity\":0.5,\"channel_ambientocclusion\":1,\"channel_basecolor\":1,\"channel_diffuse\":0,\"channel_glossiness\":0,\"channel_height\":1,\"channel_metallic\":1,\"channel_normal\":1,\"channel_roughness\":1,\"channel_specular\":0,\"color\":[0.7137259840965271,0.5019609928131104,0.3960779905319214],\"contrast\":0.0,\"grain_intensity\":0.1899999976158142,\"height_position\":0.5,\"height_range\":1.0,\"hue_shift\":0.0,\"luminosity\":0.5,\"normal_format\":0,\"normal_intensity\":0.5,\"roughness\":0.5,\"saturation\":0_4"
    },
    {
      "bufferView": 2,
      "mimeType": "image/png"
    }
  ],
  "materials": [
    {
      "name": "terracotta_sbsar",
      "normalTexture": {
        "extensions": {
          "KHR_texture_transform": {
            "offset": [
              0.0,
              1.0
            ],
            "scale": [
              1.0,
              -1.0
            ]
          }
        },
        "index": 1
      },
      "pbrMetallicRoughness": {
        "baseColorTexture": {
          "extensions": {
            "KHR_texture_transform": {
              "offset": [
                0.0,
                1.0
              ],
              "scale": [
                1.0,
                -1.0
              ]
            }
          },
          "index": 0
        }
      }
    }
  ],
  "meshes": [
    {
      "primitives": [
        {
          "attributes": {
            "NORMAL": 1,
            "POSITION": 0,
            "TEXCOORD_0": 2
          },
          "indices": 3,
          "material": 0,
          "mode": 4
        }
      ]
    }
  ],
  "nodes": [
    {
      "children": [
        1,
        6,
        7,
        8
      ],
      "name": "Scene",
      "rotation": [
        0.0,
        0.0,
        0.0,
        1.0
      ],
      "scale": [
        1.0,
        1.0,
        1.0
      ],
      "translation": [
        0.0,
        0.0,
        0.0
      ]
    },
    {
      "children": [
        2
      ],
      "matrix": [
        1.0,
        0.0,
        0.0,
        0.0,
        0.0,
        1.0,
        0.0,
        0.0,
        0.0,
        0.0,
        1.0,
        0.0,
        0.0,
        1.0001857280731201,
        3.725290298461914e-09,
        1.0
      ],
      "name": "Project1_geo"
    },
    {
      "children": [
        3,
        4
      ],
      "matrix": [
        1.0,
        0.0,
        0.0,
        0.0,
        0.0,
        2.220446049250313e-16,
        -1.0,
        0.0,
        0.0,
        1.0,
        2.220446049250313e-16,
        0.0,
        0.0,
        0.0,
        0.0,
        1.0
      ],
      "name": "Ref"
    },
    {
      "name": "material",
      "rotation": [
        0.0,
        0.0,
        0.0,
        1.0
      ],
      "scale": [
        1.0,
        1.0,
        1.0
      ],
      "translation": [
        0.0,
        0.0,
        0.0
      ]
    },
    {
      "children": [
        5
      ],
      "name": "root",
      "rotation": [
        0.0,
        0.0,
        0.0,
        1.0
      ],
      "scale": [
        1.0,
        1.0,
        1.0
      ],
      "translation": [
        0.0,
        0.0,
        0.0
      ]
    },
    {
      "mesh": 0,
      "name": "mesh_0",
      "rotation": [
        0.0,
        0.0,
        0.0,
        1.0
      ],
      "scale": [
        1.0,
        1.0,
        1.0
      ],
      "translation": [
        0.0,
        0.0,
        0.0
      ]
    },
    {
      "camera": 0,
      "matrix": [
        0.942291259765625,
        2.694511458400939e-08,
        0.33479246497154236,
        0.0,
        0.11233079433441162,
        0.9420308470726013,
        -0.31616082787513733,
        0.0,
        -0.3153851628303528,
        0.33552315831184387,
        0.8876675367355347,
        0.0,
        -1.970879077911377,
        3.096909284591675,
        5.547141075134277,
        0.9999999403953552
      ],
      "name": "CameraTransform"
    },
    {
      "camera": 1,
      "matrix": [
        0.8944272017096098,
        0.0,
        -0.4472136008548049,
        0.0,
        -0.09758999106623016,
        0.9758999773023126,
        -0.19517998213246032,
        0.0,
        0.4364357741279368,
        0.2182178803999673,
        0.8728715482558737,
        0.0,
        2.7273355390057157,
        2.363853476752802,
        5.454670847703248,
        1.0
      ],
      "name": "CameraTransform"
    },
    {
      "name": "Materials",
      "rotation": [
        0.0,
        0.0,
        0.0,
        1.0
      ],
      "scale": [
        1.0,
        1.0,
        1.0
      ],
      "translation": [
        0.0,
        0.0,
        0.0
      ]
    }
  ],
  "samplers": [
    {
      "magFilter": 9729,
      "minFilter": 9729,
      "wrapS": 10497,
      "wrapT": 10497
    },
    {
      "magFilter": 9729,
      "minFilter": 9729,
      "wrapS": 10497,
      "wrapT": 10497
    }
  ],
  "scenes": [
    {
      "nodes": [
        0
      ]
    }
  ],
  "textures": [
    {
      "sampler": 0,
      "source": 0
    },
    {
      "sampler": 1,
      "source": 1
    }
  ]
}
